<svg width="25" height="25" viewBox="0 0 25 25" fill="none" xmlns="http://www.w3.org/2000/svg">
<g clip-path="url(#clip0_6_18)">
<path d="M12.4974 25C5.59843 25 0 19.4016 0 12.4974C0 5.59843 5.59843 0 12.4974 0C19.4016 0 24.9947 5.59843 24.9947 12.4974C24.9947 19.4016 19.3963 24.9947 12.4974 24.9947V25Z" fill="#C40041"/>
<path d="M12.4973 6.88304C14.3265 6.88304 14.5432 6.88833 15.2675 6.92534C15.9336 6.95706 16.2984 7.06807 16.5415 7.16323C16.8587 7.29011 17.0913 7.43813 17.3292 7.67602C17.5671 7.91392 17.7151 8.14652 17.842 8.46372C17.9372 8.7069 18.0482 9.06638 18.0799 9.73777C18.1116 10.462 18.1222 10.6788 18.1222 12.5079C18.1222 14.3371 18.1169 14.5538 18.0799 15.2781C18.0482 15.9442 17.9372 16.3089 17.842 16.5521C17.7151 16.8746 17.5671 17.1019 17.3292 17.3398C17.0913 17.5777 16.8587 17.7257 16.5415 17.8526C16.2984 17.9478 15.9389 18.0588 15.2675 18.0905C14.5432 18.1222 14.3265 18.1328 12.4973 18.1328C10.6682 18.1328 10.4515 18.1275 9.7272 18.0905C9.06109 18.0588 8.69632 17.9478 8.45314 17.8526C8.13066 17.7257 7.90334 17.5777 7.66545 17.3398C7.42756 17.1019 7.27953 16.8693 7.15266 16.5521C7.0575 16.3089 6.94648 15.9494 6.91476 15.2781C6.88304 14.5538 6.87247 14.3371 6.87247 12.5079C6.87247 10.6788 6.87776 10.462 6.91476 9.73777C6.94648 9.07167 7.0575 8.7069 7.15266 8.46372C7.27953 8.14652 7.42756 7.91392 7.66545 7.67602C7.90334 7.43813 8.13595 7.29011 8.45314 7.16323C8.69632 7.06807 9.05581 6.95706 9.7272 6.92534C10.4515 6.89362 10.6682 6.88304 12.4973 6.88304ZM12.4973 5.646C10.6365 5.646 10.4039 5.65657 9.67433 5.68829C8.94479 5.72001 8.44786 5.83631 8.00907 6.00548C7.55972 6.17994 7.1738 6.41254 6.79317 6.79846C6.41254 7.17909 6.17994 7.55972 6.00548 8.01436C5.83631 8.44786 5.72001 8.95008 5.68829 9.67962C5.65657 10.4092 5.646 10.6418 5.646 12.5079C5.646 14.3741 5.65128 14.6014 5.68829 15.3309C5.72001 16.0605 5.83631 16.5574 6.00548 16.9962C6.17994 17.4455 6.41254 17.8314 6.79317 18.2121C7.1738 18.5927 7.55443 18.8253 8.00907 19.0051C8.44257 19.1742 8.94479 19.2905 9.67433 19.3222C10.4039 19.354 10.6365 19.3645 12.4973 19.3645C14.3582 19.3645 14.5908 19.3593 15.3203 19.3222C16.0499 19.2905 16.5468 19.1742 16.9856 19.0051C17.435 18.8306 17.8209 18.598 18.2015 18.2121C18.5821 17.8314 18.8147 17.4508 18.9945 16.9962C19.1637 16.5627 19.28 16.0605 19.3117 15.3309C19.3434 14.6014 19.354 14.3688 19.354 12.5079C19.354 10.6471 19.3487 10.4144 19.3117 9.67962C19.28 8.95008 19.1637 8.45314 18.9945 8.01436C18.82 7.56501 18.5874 7.17909 18.2015 6.79846C17.8209 6.41783 17.4402 6.18522 16.9856 6.00548C16.5521 5.83631 16.0499 5.72001 15.3203 5.68829C14.5908 5.65657 14.3582 5.646 12.4973 5.646Z" fill="white"/>
<path d="M12.4974 8.98181C10.5519 8.98181 8.97656 10.5572 8.97656 12.5026C8.97656 14.4481 10.5519 16.0235 12.4974 16.0235C14.4428 16.0235 16.0182 14.4481 16.0182 12.5026C16.0182 10.5572 14.4428 8.98181 12.4974 8.98181ZM12.4974 14.7811C11.2339 14.7811 10.2136 13.7608 10.2136 12.4974C10.2136 11.2339 11.2339 10.2136 12.4974 10.2136C13.7609 10.2136 14.7812 11.2339 14.7812 12.4974C14.7812 13.7608 13.7609 14.7811 12.4974 14.7811Z" fill="white"/>
<path d="M16.9803 8.83904C16.9803 9.29368 16.6103 9.66374 16.1556 9.66374C15.701 9.66374 15.3309 9.29368 15.3309 8.83904C15.3309 8.3844 15.701 8.01434 16.1556 8.01434C16.6103 8.01434 16.9803 8.3844 16.9803 8.83904Z" fill="white"/>
</g>
<defs>
<clipPath id="clip0_6_18">
<rect width="25" height="25" fill="white"/>
</clipPath>
</defs>
</svg>
