<svg width="25" height="25" viewBox="0 0 25 25" fill="none" xmlns="http://www.w3.org/2000/svg">
<g clip-path="url(#clip0_157_20)">
<path d="M12.4974 25C5.59843 25 0 19.4016 0 12.4974C0 5.59843 5.59843 0 12.4974 0C19.4016 0 24.9947 5.59843 24.9947 12.4974C24.9947 19.4016 19.3963 24.9947 12.4974 24.9947V25Z" fill="#C40041"/>
<path d="M8.80591 5.2041C8.93885 5.28623 10.0277 7.8701 10.0594 8.10385C10.2366 9.52529 8.92619 10.0876 8.98316 10.9846C9.07812 12.5008 12.9271 15.7481 14.2376 15.628C15.1049 15.5459 15.6493 13.0063 18.2955 14.2255C20.5745 15.2806 20.5618 17.5738 18.2955 18.6162C13.1044 20.9916 2.76651 11.7806 5.4317 6.36653C5.93181 5.3494 7.8943 4.63552 8.80591 5.19778V5.2041Z" fill="white"/>
</g>
<defs>
<clipPath id="clip0_157_20">
<rect width="25" height="25" fill="white"/>
</clipPath>
</defs>
</svg>
